<?xml version="1.0"?>
<svg width="1000" height="1000" enable-background="new 0 0 91.026 30.223" xmlns="http://www.w3.org/2000/svg">
<g transform="scale(1.0226828)">
 <path style="fill:#07111E;fill-rule:nonzero;stroke:none" d="M 488.90625,0 C 218.89062,0 0,218.89453 0,488.91406 c 0,270.01172 218.89062,488.90625 488.90625,488.90625 270.01953,0 488.91406,-218.89453 488.91406,-488.90625 C 977.82031,218.89453 758.92578,0 488.90625,0"/>
 <path style="fill:#f0f0f0;fill-rule:evenodd;stroke:none" d="m 775.97656,354.91016 c -74.09765,0 -134.16797,60.07031 -134.16797,134.16796 0,74.09766 60.07032,134.16797 134.16797,134.16797 67.12891,-0.0781 123.875,-49.76562 132.8086,-116.28515 h -76.57032 c -7.58203,23.85156 -29.88672,41.1289 -56.23828,41.1289 -32.58984,0 -59,-26.42187 -59,-59 0,-32.58984 26.42188,-59 59,-59.01172 26.35156,0 48.66797,17.27735 56.23828,41.12891 h 76.58203 C 899.85156,404.66406 843.10547,354.98828 775.97656,354.91016 M 201.21484,548.07812 c -32.58984,0 -59,-26.42187 -59,-59.01171 0,-32.58985 26.42188,-59 59,-59 32.58985,0 59,26.42187 59,59 0,32.60156 -26.42187,59.01171 -59,59.01171 m 134.16797,72.89844 V 489.07812 c 0,-74.09765 -60.07031,-134.16796 -134.16797,-134.16796 -74.09765,0 -134.167965,60.07031 -134.167965,134.16796 0,74.09766 60.070315,134.16797 134.167965,134.16797 21.86328,-0.0351 44.52735,-9.32031 60.5,-24.76562 v 22.49609 z M 488.30078,430.07812 c 32.58984,0 59,26.42188 59,59.01172 0,32.59375 -26.42187,59 -59,59 -32.58984,0 -59,-26.42187 -59,-59 0,-32.60156 26.41016,-59.01172 59,-59.01172 M 354.13281,288.87891 v 200.19921 c 0,74.09766 60.07031,134.16797 134.16797,134.16797 74.10547,0 134.16797,-60.07031 134.16797,-134.16797 0,-74.09765 -60.0625,-134.16796 -134.16797,-134.16796 -20.45703,0.0312 -41.63672,6.54296 -59,18.30859 v -84.33984 z m 0,0"/>
</g>
</svg>