<?xml version="1.0" encoding="UTF-8" standalone="no"?>
<!-- Created with Inkscape (http://www.inkscape.org/) -->

<svg
   xmlns:dc="http://purl.org/dc/elements/1.1/"
   xmlns:cc="http://creativecommons.org/ns#"
   xmlns:rdf="http://www.w3.org/1999/02/22-rdf-syntax-ns#"
   xmlns:svg="http://www.w3.org/2000/svg"
   xmlns="http://www.w3.org/2000/svg"
   version="1.0"
   width="417.00049"
   height="107.58"
   viewBox="0 0 333.60039 86.064001"
   id="svg2">
  <title
     id="title3917">Five Guys logo</title>
  <defs
     id="defs56" />
  <metadata
     id="metadata4">
    <rdf:RDF>
      <cc:Work
         rdf:about="">
        <dc:format>image/svg+xml</dc:format>
        <dc:type
           rdf:resource="http://purl.org/dc/dcmitype/StillImage" />
        <dc:title>Five Guys logo</dc:title>
      </cc:Work>
    </rdf:RDF>
  </metadata>
  <g
     transform="matrix(0.0960355,0,0,0.0960355,1.5004145,-2.1827585)"
     id="g3891"
     style="fill:#c92027;fill-opacity:1">
    <path
       d="m 1847.4,98.2 c -93.7,7.4 -161.2,65.4 -179.7,154.5 -4.4,20.9 -5.2,29.6 -5.2,56.5 0,26 0.7,34.1 4.6,54 7.8,39.3 29.4,77.8 57.2,102.1 27.3,23.8 60.5,38.3 99.3,43.4 14.7,1.9 43.7,1.9 57.1,0 28.4,-4 54,-14.2 71.8,-28.7 4.7,-3.8 8.5,-6.5 8.6,-6.1 0,0.5 0.8,6.6 1.7,13.8 l 1.7,13 46.8,0.3 46.7,0.2 0,-111.5 0,-111.5 -92,0 -92,0 0,48 0,48 25.5,0 c 17.3,0 25.5,0.3 25.5,1.1 0,0.5 -3.5,4.5 -7.7,8.7 -8.9,8.9 -19.9,15 -31.8,17.8 -10.4,2.4 -28.3,1.5 -39.1,-2 -30.6,-9.8 -46.3,-41.1 -46.4,-92.2 -0.1,-49.8 15.7,-87.2 41.5,-98.4 10.8,-4.6 28.2,-5.8 40.4,-2.6 19.2,4.9 33.7,19.6 39.6,39.8 l 1.6,5.8 66,0 65.9,0 -0.4,-2.3 c -0.3,-1.2 -1.5,-7.2 -2.7,-13.2 -3,-15.8 -8,-30.1 -15.4,-45 -25.5,-51.1 -73.3,-83.4 -136,-91.9 -14.3,-1.9 -39.1,-2.7 -53.1,-1.6 z"
       id="path8"
       style="fill:#c92027;fill-opacity:1;stroke:none" />
    <path
       d="m 3137.6,98.2 c -67.5,4.7 -116,30.8 -137.6,74 -16.4,32.6 -15.4,81.6 2.1,110.5 7.6,12.6 22,27 36.4,36.6 8,5.4 27.6,14.9 40,19.5 5.5,2 28.2,8.3 50.5,13.9 58.7,14.9 70.8,19.5 75.6,28.7 2.5,4.7 1.4,12.1 -2.2,15.9 -6.6,6.9 -20.9,10.9 -38.8,10.9 -27.9,0 -46.3,-12.1 -50.6,-33.3 l -1.1,-5.7 -66.1,0 -66.1,0 0.7,10.1 c 3.1,47.6 32.2,87.6 80.9,110.9 30.1,14.5 56.4,20 94.9,20 65.6,0 116.6,-16.5 147.9,-47.9 17.3,-17.3 27.1,-35.1 32.4,-58.8 2.2,-9.5 3.1,-37.9 1.6,-48.4 -3.2,-21.7 -14,-42.3 -30.6,-57.8 -23,-21.5 -52.2,-33.9 -116.9,-49.6 -46.8,-11.4 -65.7,-19.8 -68.6,-30.5 -2.1,-7.8 2.1,-12.9 12.7,-15.4 19.5,-4.8 42.5,-1.5 52.8,7.6 5.4,4.8 7.5,8.4 9,15.8 l 1.2,5.5 65.6,0.3 65.7,0.2 0,-2.9 c 0,-9.8 -5.9,-32.6 -12.3,-47.1 -8.8,-20.3 -27.1,-42.1 -45.7,-54.4 -21.3,-14.3 -50.4,-24.3 -79.5,-27.5 -13.8,-1.5 -39.6,-2 -53.9,-1.1 z"
       id="path10"
       style="fill:#c92027;fill-opacity:1;stroke:none" />
    <path
       d="m 101,303.7 0,196.5 69,0 69,0 0,-66.5 0,-66.5 68,0 68,0 0,-51 0,-51 -68,0 -68,0 0,-28 0,-28 85.5,0 85.5,0 0,-51 0,-51 -154.5,0 -154.5,0 0,196.5 z"
       id="path12"
       style="fill:#c92027;fill-opacity:1;stroke:none" />
    <path
       d="m 465,303.7 0,196.5 69,0 69,0 0,-196.5 0,-196.5 -69,0 -69,0 0,196.5 z"
       id="path14"
       style="fill:#c92027;fill-opacity:1;stroke:none" />
    <path
       d="m 651.3,109.4 c 0.3,1.3 30.4,89.7 66.9,196.5 l 66.3,194.3 67.6,0 67.6,0 67.6,-194.8 c 37.1,-107.1 67.8,-195.5 68.2,-196.5 0.7,-1.6 -3,-1.7 -69.7,-1.7 l -70.4,0 -31.5,115 c -17.2,63.2 -31.6,115 -31.9,115 -0.3,0 -13.8,-50.3 -29.9,-111.8 -16.2,-61.4 -29.8,-113.2 -30.3,-115 l -0.9,-3.2 -70.1,0 -70,0 0.5,2.2 z"
       id="path16"
       style="fill:#c92027;fill-opacity:1;stroke:none" />
    <path
       d="m 1102,303.7 0,196.5 165,0 165,0 0,-51 0,-51 -96,0 -96,0 0,-23 0,-23 78.5,0 78.5,0 0,-51 0,-51 -78.5,0 -78.5,0 0,-20.5 0,-20.5 92.5,0 92.5,0 0,-51 0,-51 -161.5,0 -161.5,0 0,196.5 z"
       id="path18"
       style="fill:#c92027;fill-opacity:1;stroke:none" />
    <path
       d="m 2128.3,232.9 c 0.3,134.2 0.2,130.7 5.3,155.8 3.9,19.6 13.1,42.2 23.4,57.8 7,10.6 21,25 31.7,32.6 16,11.5 37.4,20.4 59.8,24.9 24.5,5.1 32.1,5.7 69,5.6 31.1,0 36.6,-0.2 49,-2.2 43.6,-6.9 72.3,-19.7 95.1,-42.6 22.8,-22.9 34.7,-49 41.7,-92.1 2,-12.7 2.1,-16.3 2.4,-139.3 l 0.4,-126.2 -69,0 -69,0 -0.4,126.7 c -0.3,114.7 -0.5,127.4 -2,133.6 -4.7,19 -15.1,30.2 -31.8,34.2 -13.5,3.1 -35.2,1.4 -45.1,-3.6 -6.1,-3.1 -13.4,-10.5 -16.3,-16.3 -6.1,-12.5 -5.9,-6.9 -6.2,-146.9 l -0.4,-127.7 -69,0 -69,0 0.4,125.7 z"
       id="path20"
       style="fill:#c92027;fill-opacity:1;stroke:none" />
    <path
       d="m 2538,107.7 c 0,0.3 32.9,56.7 73,125.3 l 73,124.9 0,71.1 0,71.2 69,0 69,0 0,-72.2 0,-72.1 73,-123.8 c 40.2,-68 73,-124 73,-124.3 0,-0.3 -34.5,-0.5 -76.6,-0.4 l -76.7,0.3 -30.1,59.2 c -16.5,32.6 -30.3,59.3 -30.6,59.3 -0.3,0 -14,-26.7 -30.5,-59.3 l -30,-59.2 -77.7,-0.3 c -42.8,-0.1 -77.8,0 -77.8,0.3 z"
       id="path22"
       style="fill:#c92027;fill-opacity:1;stroke:none" />
    <path
       d="m 1082.5,647.9 c -4.3,0.5 -8.6,1.2 -9.5,1.6 -0.8,0.4 -1.9,0.8 -2.5,0.8 -0.5,0.1 -1.7,0.5 -2.5,0.8 -0.8,0.3 -4,1.3 -7,2.3 -7.5,2.3 -15.1,6.2 -24.4,12.6 -4.3,2.9 -8.6,5.8 -9.5,6.3 -4.3,2.7 -24.1,21.4 -24.1,22.8 0,0.5 -1.5,2.7 -3.4,5 -9.8,12.1 -18.5,31.6 -20.2,45.2 -0.3,2.7 -0.8,5.7 -1.1,6.5 -0.6,2 -0.6,28.1 0,30 0.3,0.8 1.1,4.5 1.7,8.3 1.4,8.9 6,20.6 10.3,26.4 4.7,6.3 14.2,15.4 19.4,18.7 4.4,2.7 12.7,5.8 20.3,7.6 7.3,1.7 32,1.2 42.9,-0.9 17.9,-3.5 35.7,-12.5 49.4,-25.1 6.4,-5.9 15.6,-16.8 18.7,-22.5 1.2,-2.2 4.2,-7.4 6.6,-11.5 10.7,-18.7 15.4,-46.9 9.4,-56.8 -3.1,-5 -7.1,-6.5 -16,-5.9 -7.3,0.5 -41.9,7.9 -45.1,9.7 -2,1 -10.8,2.6 -19.9,3.5 -10.7,1.1 -14.3,4.4 -15.5,14.2 -0.8,6.1 1.6,11.1 6.5,13.6 5.6,2.9 23.6,1.8 42,-2.6 8,-2 14.6,-3.4 14.6,-3.4 0.1,0.1 -1.1,3.6 -2.8,7.7 -3.9,9.8 -12.1,21.1 -22.8,31.3 -17.5,16.8 -25.8,20.1 -47.5,19.4 -15.2,-0.5 -20,-2.1 -26.5,-8.9 -3.7,-3.7 -10.2,-14.5 -10.5,-17.3 -0.1,-0.6 -0.7,-2.4 -1.4,-4 -3,-6.8 -2.3,-30 1.1,-38.3 0.6,-1.5 1.2,-2.9 1.3,-3.2 0.4,-1.3 5.7,-12 8,-16 6.4,-11.5 25.7,-30.2 38.2,-37.3 17.1,-9.6 23.7,-11.2 41,-9.7 12,1.1 14.3,2 14.3,5.8 0,3.4 3.2,8.7 6.2,10.3 3.4,1.8 13.2,3.7 14.8,2.8 0.8,-0.4 3,-1.3 4.8,-2 4.2,-1.5 8,-7.4 8.9,-13.4 0.4,-3.6 0.1,-5.3 -2.2,-9.6 -3.2,-6.2 -8.4,-13.3 -10.5,-14.5 -5.8,-3.3 -16.1,-7.8 -17.4,-7.5 -0.4,0.1 -1.4,-0.3 -2.2,-0.9 -0.7,-0.7 -2.3,-1.1 -3.6,-0.9 -1.3,0.1 -3,-0.1 -3.8,-0.4 -2.9,-1.1 -20.6,-1.5 -28.5,-0.6 z"
       id="path24"
       style="fill:#c92027;fill-opacity:1;stroke:none" />
    <path
       d="m 2165.5,649.8 c -0.4,0.6 -1.2,0.9 -1.8,0.7 -1.9,-0.7 -8.2,2.9 -11,6.3 -4.3,5 -4.9,14.9 -1.2,19 1.4,1.5 1.6,4.5 1.3,21.1 l -0.3,19.4 -3.3,0.1 c -1.8,0.1 -3.5,-0.3 -3.8,-0.8 -0.7,-1.1 -5.1,-1 -5.9,0.2 -0.3,0.5 -2.3,1 -4.3,1 -10.9,0 -28.3,7.8 -41,18.4 -9.1,7.6 -22.1,21.2 -25.6,26.9 -1.1,1.8 -2.3,3.4 -2.6,3.7 -2.1,2 -10.4,20.6 -11.6,25.9 -2.8,13.3 -1.2,30.9 3.5,38.5 3.4,5.4 9.6,10.4 15,12 4.9,1.4 24,2.3 27.1,1.3 0.8,-0.3 4.2,-1.3 7.5,-2.2 3.3,-0.9 8.5,-3 11.5,-4.7 11.3,-6.3 29.4,-21.2 31.1,-25.6 0.5,-1.2 1.2,-2.2 1.6,-2.2 1.3,0 1.3,8.3 0,9.9 -0.6,0.7 -1.2,3.9 -1.2,7 0,4.3 0.6,6.4 2.3,8.9 3.5,4.8 7,6.2 15.7,6.2 12.9,0 17.8,-4 17.6,-14.4 -0.1,-2.8 -0.5,-41.1 -0.9,-85.1 -0.7,-74.5 -0.8,-80.2 -2.5,-83.3 -1.8,-3.2 -7.4,-7.4 -10.6,-7.8 -0.9,-0.1 -2.6,-0.5 -3.7,-0.9 -1.3,-0.4 -2.5,-0.2 -2.9,0.5 z m -16,97 c 2.1,0 3.4,5.1 2,8.5 -5,12.8 -9.5,19.3 -23,33.4 -15.1,15.7 -29.3,25.1 -38,25.1 -2.9,0 -3.6,-0.4 -4.1,-2.6 -1.1,-4.4 0.3,-11.9 3.7,-19.1 7.9,-16.9 29.1,-38.4 42.5,-42.9 5.8,-2 12.5,-3.3 14.2,-2.8 0.8,0.2 1.9,0.4 2.7,0.4 z"
       id="path26"
       style="fill:#c92027;fill-opacity:1;stroke:none" />
    <path
       d="m 2395.5,649.8 c -0.4,0.6 -1.7,1 -2.8,0.9 -1.2,-0.1 -3.3,0.2 -4.7,0.8 -1.4,0.5 -14.8,2.7 -29.8,4.8 l -27.3,3.7 -2.4,-2.2 c -4.1,-3.9 -15.9,-4.8 -22,-1.8 -4.9,2.5 -7.5,6.3 -10.1,14.6 -2.8,9 -2.8,16.4 0.2,20.6 1.1,1.6 1.4,6.2 1.4,22 0,17.6 -0.2,20.2 -1.7,21.9 -1.4,1.4 -1.8,3.7 -1.8,9.2 0,5.5 0.4,7.8 1.8,9.2 1.5,1.8 1.7,4.7 1.7,29.2 0,25.2 -0.1,27.5 -2,31.1 -2.9,5.6 -2.7,14.6 0.3,19 3.4,5 8,7 16.3,7 3.9,0 8.6,-0.5 10.5,-1.1 7.8,-2.7 12.4,-11.9 9.9,-20 -1,-3.1 -1.5,-12.2 -1.7,-31.6 l -0.4,-27.1 2.8,-0.6 c 1.5,-0.3 12.9,-1.9 25.3,-3.6 12.4,-1.7 23.3,-3.5 24.2,-4 1,-0.6 5.5,-1 10,-1 4.6,0 9.4,-0.6 10.8,-1.3 5.8,-2.9 9.2,-13.5 7,-21.7 -1.2,-4.3 -7.1,-10 -10.5,-10 -1.2,0 -2.6,-0.5 -3.3,-1.2 -0.8,-0.8 -1.8,-0.9 -3.4,-0.1 -5.2,2.5 -14.5,4.4 -35.3,7.3 -12.1,1.7 -23.2,3.3 -24.7,3.6 l -2.8,0.6 0,-17.6 c 0,-17.4 0,-17.6 2.3,-18 1.2,-0.3 10.8,-1.7 21.2,-3.1 10.5,-1.4 19.7,-3 20.6,-3.4 0.8,-0.5 2.7,-0.7 4.1,-0.4 1.4,0.3 2.9,0 3.2,-0.6 0.5,-0.7 5.1,-1.1 12.5,-1.1 10.6,0 12.2,-0.2 15.2,-2.3 1.9,-1.2 4.2,-3.9 5.3,-6.1 2.2,-4.5 2.4,-13.1 0.5,-17.2 -1.8,-3.7 -7.9,-7.6 -12.1,-7.9 -1.8,-0.1 -4.3,-0.6 -5.4,-1 -1.3,-0.4 -2.5,-0.2 -2.9,0.5 z"
       id="path28"
       style="fill:#c92027;fill-opacity:1;stroke:none" />
    <path
       d="m 541.5,652.9 c -9.6,0.9 -31.3,5.2 -37.8,7.5 -3.5,1.2 -4.1,1.2 -6.7,-0.7 -6.3,-4.7 -19.3,-3.3 -25.1,2.7 -3.3,3.4 -3.4,3.8 -3.1,10.2 0.1,3.7 0.5,36.9 0.7,73.9 0.5,66 0.5,67.3 -1.5,70.5 -2.5,4.1 -2.7,13.5 -0.5,17.8 0.9,1.7 3.3,3.9 5.5,5 7.9,4 31.7,2.2 57.9,-4.4 5.7,-1.5 10.9,-3 11.5,-3.4 0.6,-0.3 1.3,-0.7 1.6,-0.8 0.3,0 2.7,-1 5.3,-2.2 2.7,-1.2 5.3,-2.2 5.9,-2.2 3,0 28.1,-16.5 32.7,-21.4 1.4,-1.4 2.9,-2.6 3.6,-2.6 1.1,0 6.5,-5.7 6.5,-7 0,-0.4 0.7,-1.4 1.7,-2.1 2.3,-2 9.6,-13.6 11.5,-18.4 2.4,-6.1 4.1,-18.2 3.4,-24.2 -1.2,-10 -6.8,-19.9 -14.7,-25.9 -3.3,-2.4 -12.8,-6.3 -18,-7.4 l -5.6,-1.1 5.3,-5.4 c 3.2,-3.3 6.5,-8.1 8.4,-12.2 1.7,-3.8 3.5,-7.6 4,-8.5 0.5,-1 0.7,-2.4 0.4,-3.2 -0.3,-0.8 -0.1,-1.7 0.5,-2.1 1.4,-0.8 1.4,-7.2 0.1,-8 -0.6,-0.4 -1,-1.2 -0.9,-1.8 0.4,-2.4 -2.3,-7.3 -6.4,-11.5 -5.9,-6.1 -12.6,-9.2 -23.2,-10.8 -9.8,-1.5 -9.9,-1.5 -23,-0.3 z m 19.2,31.3 c 2.1,1.1 2.1,1.2 0.6,4.4 -3.8,7.9 -21.1,20.3 -34.5,24.8 -4,1.4 -8.2,2.9 -9.3,3.4 -2.3,1.1 -10.2,2.9 -12.7,3 -1.6,0 -1.8,-1.3 -1.8,-12.9 l 0,-12.9 4.8,-2 c 2.6,-1.1 7.4,-2.7 10.7,-3.6 3.3,-0.9 6.7,-2 7.5,-2.3 0.8,-0.4 2,-0.8 2.5,-0.8 0.6,-0.1 1.7,-0.5 2.6,-0.9 5.5,-2.4 25,-2.6 29.6,-0.2 z m 8.2,61.9 c 11.1,2.3 14.7,7.6 11.6,17.1 -1,2.8 -3,6.8 -4.6,9 -3.2,4.4 -13.2,13.2 -16.9,14.9 -1.4,0.7 -5.9,3.2 -10,5.6 -4.1,2.4 -9.5,5.3 -12,6.3 -6.1,2.7 -21.5,7.4 -27,8.3 -2.5,0.4 -5.1,1.2 -5.7,1.7 -1,0.8 -1.3,-4.8 -1.3,-27.4 0,-21.2 0.3,-28.8 1.3,-30.1 1.6,-2.2 17.4,-5.5 31.6,-6.6 11.9,-1 25,-0.5 33,1.2 z"
       id="path30"
       style="fill:#c92027;fill-opacity:1;stroke:none" />
    <path
       d="m 758.1,652.8 c -5,1.1 -9.7,4.9 -11.7,9.7 -1.6,3.8 -1.8,9.7 -0.4,12.3 0.7,1.3 1,22 1,58.2 l 0,56.3 -3.4,4.7 c -3,3.9 -11.2,10.8 -12.9,10.8 -0.3,0 -2.7,1 -5.4,2.2 -2.6,1.2 -5,2.2 -5.3,2.2 -0.3,0.1 -0.9,0.4 -1.5,0.8 -2.1,1.3 -13.1,2.8 -20.4,2.8 -10.8,-0.1 -15.1,-1.2 -18.4,-5.2 l -2.8,-3.3 0.1,-68.2 0,-68.1 -2.2,-3.9 c -3.3,-5.9 -5.8,-8.2 -10.1,-9.4 -8.2,-2.2 -20.6,3.5 -20.8,9.5 0,1.1 0,34.3 0.1,73.6 l 0.1,71.5 2.4,6.9 c 1.3,3.8 3.2,7.6 4.2,8.6 1,1 2.5,2.6 3.4,3.6 4.6,5.4 13.8,10.4 23.8,13 5.2,1.3 9.9,1.5 24,1.1 24.1,-0.6 35.9,-3.9 50.1,-13.9 3.4,-2.3 7.1,-4.8 8.1,-5.4 2.4,-1.4 11.8,-10.7 11.9,-11.7 0,-0.5 1.1,-2.3 2.4,-4 5.2,-6.8 5.1,-5.2 5.8,-71.7 0.4,-34.4 0.9,-65 1,-68 0.2,-6.5 -1.9,-11.3 -6.1,-13.4 -3.7,-2 -11.6,-2.7 -17,-1.6 z"
       id="path32"
       style="fill:#c92027;fill-opacity:1;stroke:none" />
    <path
       d="m 834.2,652.8 c -10,2.3 -14.3,9.4 -12.4,20 1,5.5 1,5.5 -2.7,9.2 -2,2.1 -3.6,4.2 -3.6,4.7 0,0.5 -0.3,1.3 -0.7,1.7 -0.5,0.4 -0.8,3.1 -0.8,6.1 0,5.8 3.1,12.2 7,14.3 2,1.1 2,2 2,52.9 0,45.4 -0.2,52.3 -1.6,55.7 -3.2,7.6 0.1,18.3 6.3,20.9 5.5,2.3 17.3,2 22.6,-0.6 3.7,-1.8 4.7,-2.9 6.2,-7.1 1.6,-4.4 1.6,-5.8 0.6,-11.7 -0.8,-4.2 -1.1,-14 -0.9,-26.9 l 0.3,-20.2 7.6,6.7 c 4.1,3.8 18.7,16.7 32.5,28.8 13.7,12 27.2,24.3 29.9,27.1 6.6,6.8 8,7.4 17.3,7.4 8.6,0 12.4,-1.7 16.5,-7.2 3.8,-5.2 3.9,-16.2 0.1,-20.6 -1.8,-2.2 -7.6,-5.5 -10,-5.7 -2,-0.1 -6.5,-3.6 -30.9,-24.3 -13.4,-11.4 -27.6,-23.2 -31.4,-26.2 -3.9,-3 -7,-5.7 -7.1,-6 0,-0.3 2.6,-1.1 5.8,-1.9 5.7,-1.3 25.4,-9.9 26,-11.3 0.2,-0.5 0.8,-0.8 1.4,-0.8 4.1,0 24.8,-19.2 28,-26 6.4,-13.8 6.2,-13.2 6.1,-23.1 0,-8.6 -0.3,-10.3 -2.9,-15.4 -6.3,-12.5 -15.2,-18.7 -29.7,-20.5 -15.9,-2 -37.9,2.3 -53.2,10.4 l -4.9,2.7 -1.7,-3.3 c -2.5,-4.9 -7.2,-8.8 -11.5,-9.9 -4.5,-1 -5.7,-1 -10.2,0.1 z m 76.6,30.5 c 2.1,0.4 3.2,1.5 4.1,4 1,3 1,4 -0.7,7.8 -1.1,2.4 -3.3,5.9 -5.1,7.9 -4.5,5.1 -19.9,15.5 -28.9,19.3 -10.1,4.4 -15.1,6.4 -16,6.5 -0.4,0.1 -1.2,0.6 -1.9,1.2 -0.7,0.5 -1.7,0.7 -2.2,0.4 -0.5,-0.4 -1.2,-0.2 -1.6,0.4 -1.9,3.1 -2.5,-0.5 -2.5,-16.3 l 0,-17.2 5.8,-2.7 c 3.1,-1.5 8.9,-3.9 12.7,-5.3 3.9,-1.4 7.7,-2.9 8.5,-3.2 1.9,-0.8 1.6,-0.7 8,-2.1 9.5,-2.1 12,-2.2 19.8,-0.7 z"
       id="path34"
       style="fill:#c92027;fill-opacity:1;stroke:none" />
    <path
       d="m 1363.7,652.9 c -5.1,1.2 -8.2,3.4 -10.8,7.6 -1.9,3 -2.1,4.4 -1.6,10.7 0.6,7 0.5,7.4 -2,9.7 -1.4,1.3 -3.2,3.8 -3.9,5.6 -3,7 -0.7,18.5 4.2,21.8 l 2.4,1.6 -0.5,53.7 c -0.2,29.5 -0.6,57 -0.7,60.9 -0.3,7.2 -0.3,7.3 3.5,11 l 3.7,3.8 10.3,0 c 8.2,0 10.9,-0.4 13,-1.8 4.1,-2.7 6,-8.1 5.2,-15.2 -0.4,-3.3 -0.9,-16.4 -1.1,-29 l -0.5,-23 5.3,5.1 c 2.9,2.8 17,15.4 31.3,27.9 14.3,12.6 29.4,26.1 33.6,30.1 8.3,8 10.6,8.9 21.2,8.2 8.2,-0.5 12.9,-3.5 15.1,-9.8 2,-5.7 2,-11.3 0,-15.5 -1.9,-4.1 -8.6,-8.9 -11.3,-8.2 -1.3,0.3 -3.4,-0.7 -6.3,-3.1 -2.4,-2 -14.9,-12.7 -27.8,-23.7 -12.9,-11 -25.9,-22 -28.7,-24.4 -2.9,-2.3 -5.3,-4.6 -5.3,-5.1 0,-0.4 1.5,-1.1 3.3,-1.4 1.7,-0.3 7.9,-2.5 13.7,-4.9 24.1,-9.9 43.4,-27.9 47.6,-44.7 2.4,-9.6 1.6,-21.1 -2.1,-28.6 -3.1,-6.3 -9,-13.4 -11.2,-13.4 -0.7,0 -1.3,-0.4 -1.3,-0.9 0,-0.5 -3.2,-1.9 -7.2,-3.2 -10.4,-3.3 -25.3,-3.1 -40.2,0.5 -6,1.4 -12.9,3.6 -15.5,4.8 -2.5,1.2 -4.8,2.2 -5.1,2.3 -0.3,0 -1.9,0.9 -3.7,1.8 -4.1,2.2 -4,2.2 -4.8,-1.3 -1,-4.8 -4.2,-7.8 -9.7,-9.5 -5.7,-1.7 -6.6,-1.7 -12.1,-0.4 z m 74.4,29.9 c 3.8,0 6.9,3.2 6.9,7 0,11 -18.6,26.3 -43.5,36 -3.3,1.3 -6.5,2.7 -7.1,3.2 -0.6,0.4 -2.9,1.4 -5.2,2.2 l -4.2,1.5 0,-17.9 c 0,-11.3 0.4,-18 1,-18 0.5,0 5.4,-2 10.7,-4.3 13.1,-5.9 13.6,-6 15.1,-5.8 0.6,0.1 1.2,-0.3 1.2,-1 0,-0.6 0.7,-0.8 1.6,-0.5 0.9,0.4 2.2,0.2 2.9,-0.4 1.3,-1.1 14.2,-3 16.3,-2.4 0.8,0.2 2.7,0.4 4.3,0.4 z"
       id="path36"
       style="fill:#c92027;fill-opacity:1;stroke:none" />
    <path
       d="m 1585.5,652.8 c -12.2,1.4 -27.6,6.1 -31.5,9.5 -0.8,0.7 -3.8,2.5 -6.7,3.9 -2.8,1.5 -7.7,5 -11,7.8 -5.6,4.9 -15.2,15.6 -15.3,17 0,0.4 -1.6,3.3 -3.5,6.5 -5.9,9.7 -7.9,17.3 -8,29.3 0,5.9 0.6,12.5 1.3,15.1 2.1,7 7.8,13.9 14.5,17.3 5.2,2.7 7,3 17.3,3.4 6.6,0.3 14.1,0 17.7,-0.7 8.3,-1.6 31.9,-8.1 33.3,-9.2 0.6,-0.5 1.4,-0.6 1.7,-0.2 0.4,0.3 1.2,0.1 1.9,-0.5 1.8,-1.5 13,-3.3 20.6,-3.5 6.1,0 6.7,0.1 9.3,3.1 2.4,2.7 2.9,4.1 2.9,8.5 0,12.1 -5.6,22.9 -16.2,31.8 -7.3,6.1 -12.4,9 -21.8,12.7 -4.1,1.6 -8.4,3.3 -9.5,3.7 -1.1,0.5 -2.2,0.9 -2.5,0.9 -0.3,0.1 -1.1,0.5 -1.9,1 -0.7,0.5 -6.5,1.1 -12.7,1.4 l -11.4,0.5 -3.3,-3.5 c -2.2,-2.3 -4.1,-6 -5.7,-11.3 -1.8,-5.9 -3.5,-9.1 -6.6,-12.4 -3.9,-4.2 -4.5,-4.5 -10.3,-4.9 -5.5,-0.4 -6.6,-0.1 -10.1,2.3 -6.7,4.6 -8.5,8.6 -8.5,18.5 0.1,11.2 2.8,17.3 12.2,26.7 11.9,12.1 20.7,14.8 45.3,14 12.2,-0.4 17.4,-1.1 24.5,-3 11.6,-3.2 12.5,-3.6 22.6,-9.2 4.6,-2.6 9.6,-5.4 11,-6.1 4.5,-2.4 18.2,-14.9 22.5,-20.5 5.6,-7.3 11,-19 12.5,-26.9 0.6,-3.6 1.6,-6.9 2,-7.5 1.3,-1.3 1.1,-22.2 -0.1,-23 -0.6,-0.4 -0.8,-1 -0.5,-1.5 1,-1.6 -5.7,-13 -10.1,-17 -3.8,-3.5 -7.1,-5.3 -18.1,-10.3 -1.1,-0.5 -2.6,-0.6 -3.2,-0.3 -0.6,0.4 -1.1,0.3 -1.1,-0.2 0,-1.1 -15.8,-2.4 -17.4,-1.5 -0.6,0.4 -2.7,0.6 -4.8,0.4 -2.1,-0.1 -4.3,0.1 -5,0.6 -0.7,0.4 -2.2,0.8 -3.3,0.8 -1.1,0 -2.4,0.3 -3,0.7 -0.5,0.3 -3.5,1.1 -6.5,1.8 -7.2,1.6 -33.1,8.9 -35,9.8 -0.8,0.4 -3.3,0.7 -5.5,0.7 -5,0 -6.8,-2.9 -5.9,-9.5 0.9,-6.7 4.8,-13.1 12.8,-20.8 6.4,-6.2 18.6,-14 21,-13.4 0.4,0.2 1.3,-0.2 2,-0.7 1.9,-1.6 15.8,-2.9 21.3,-2.1 6.6,1.1 8.6,2.2 11.9,6.6 4.1,5.4 7.7,6.8 16.7,6.8 8.6,0 12,-1.7 14.6,-6.8 2,-4.3 1.8,-13.7 -0.5,-17.7 -4.3,-7.3 -16.3,-14.4 -29.9,-17.8 -6.1,-1.5 -19.2,-2 -27,-1.1 z"
       id="path38"
       style="fill:#c92027;fill-opacity:1;stroke:none" />
    <path
       d="m 2458.6,652.9 c -9.4,2.3 -13.1,7.8 -12.3,18.5 0.5,6.8 0.4,7.3 -2,9.6 -3.5,3.2 -5.3,7.8 -5.3,13.8 0,5.7 2.8,12.3 6,14 2,1.1 2,1.7 1.6,54.3 -0.2,29.3 -0.7,56.4 -1.1,60.4 l -0.7,7.2 4,4.3 4.1,4.3 8.3,0.3 c 9.8,0.4 15.2,-1.1 18.2,-5.1 1.7,-2.3 2.1,-4 1.8,-9.5 -0.9,-24.9 -1.1,-53.2 -0.4,-53.2 0.5,0 1.6,0.7 2.3,1.7 0.8,0.9 16.3,14.8 34.4,30.8 18.2,16.1 34,30.4 35.2,31.8 5.1,6 18.7,7.7 27.3,3.4 3.8,-1.9 4.8,-3 6.3,-7.2 1.1,-3.2 1.6,-7 1.4,-10.4 -0.4,-5 -0.8,-5.8 -5.1,-9.9 -3.6,-3.4 -5.3,-4.3 -7.2,-3.9 -1.3,0.2 -2.4,0 -2.4,-0.4 0,-0.5 -0.5,-0.9 -1.1,-0.9 -0.6,0 -7.4,-5.4 -15.2,-12.1 -7.8,-6.6 -22.2,-18.8 -31.9,-27.1 -9.8,-8.3 -17.8,-15.4 -17.8,-15.8 0,-0.4 1.5,-1.1 3.3,-1.4 6.6,-1.3 24.4,-9.3 31.8,-14.3 22.3,-15.1 31.8,-30.6 30.6,-49.8 -1.3,-20.7 -12.7,-31.7 -35.2,-34 -12.9,-1.2 -40,4.6 -50.9,11 -5.1,3 -5.6,3 -5.6,0.7 0,-2.7 -3.7,-8 -6.7,-9.6 -3.9,-1.9 -11,-2.7 -15.7,-1.5 z m 78.6,31.1 c 2.5,1.2 3.3,5.3 1.9,9.7 -2.9,9.7 -20.5,23.3 -40.4,31.2 -8.7,3.5 -9.2,3.7 -9.8,3.5 -0.3,0 -1.2,0.4 -2,1.1 -0.8,0.6 -2.7,1.6 -4.2,2.2 l -2.7,1.1 0,-18 c 0,-14.9 0.2,-18 1.4,-18 0.8,0 5.2,-1.8 9.8,-4 4.6,-2.3 10.8,-4.8 13.8,-5.6 3,-0.8 6.4,-2 7.5,-2.5 4.9,-2.4 20.6,-2.9 24.7,-0.7 z"
       id="path40"
       style="fill:#c92027;fill-opacity:1;stroke:none" />
    <path
       d="m 2625,652.7 c -2.5,0.4 -5.8,1.4 -7.5,2.3 -6.5,3.5 -10.1,12.6 -7.6,19.1 1.7,4.4 1.6,140.8 -0.1,141.8 -0.8,0.5 -1.3,3.2 -1.3,7.3 0,7.2 1.6,10.4 7.5,14.4 2.8,1.8 4.6,2.2 11.7,2.2 4.9,0 9.7,-0.6 11.7,-1.4 4.3,-1.8 8.2,-7 7.8,-10.2 -0.2,-1.3 0.2,-2.4 0.8,-2.4 0.6,0 0.8,-0.5 0.3,-1.3 -0.4,-0.6 -0.7,-2.1 -0.8,-3.2 0,-1.2 -0.8,-3.3 -1.7,-4.8 -1.7,-2.4 -1.8,-7.5 -1.8,-69.2 l 0,-66.5 2.7,-4.3 c 4.7,-7.4 2.4,-18.5 -4.7,-22.2 -3.4,-1.8 -11.2,-2.5 -17,-1.6 z"
       id="path42"
       style="fill:#c92027;fill-opacity:1;stroke:none" />
    <path
       d="m 2913,652.8 c -22.7,2.3 -42.7,13.2 -58.5,31.7 -5,5.8 -12.7,17.9 -13,20.3 0,0.3 -0.6,1.4 -1.2,2.5 -2,3.6 -3.6,16.1 -3.1,24.1 0.9,15.7 7.9,25.5 20.9,29.5 6.2,1.9 8.6,2.1 19.8,1.6 12.8,-0.6 30,-4.3 43.1,-9.4 0.8,-0.4 1.7,-0.7 2,-0.8 0.3,-0.1 1.2,-0.4 2,-0.7 7.5,-2.9 25.8,-3.8 29.4,-1.4 4.8,3.1 4.1,18.1 -1.2,28 -3.4,6.2 -15.6,17.6 -23.7,22.2 -3.5,1.9 -9.2,4.4 -12.7,5.6 -3.4,1.1 -6.9,2.5 -7.6,3.1 -0.7,0.5 -1.5,0.7 -1.9,0.4 -0.3,-0.4 -1.3,-0.2 -2,0.5 -0.8,0.6 -6.1,1.3 -12.1,1.6 -9.9,0.4 -10.9,0.2 -13.5,-1.8 -3.1,-2.5 -6.1,-7.8 -7.2,-13 -1.1,-5.4 -4,-10.4 -8,-13.8 -3,-2.7 -4.4,-3.2 -8.5,-3.2 -2.7,0 -6.1,0.5 -7.7,1.1 -3.3,1.2 -8.3,5.7 -8.3,7.5 0,0.7 -0.6,1.4 -1.2,1.7 -0.9,0.2 -1.3,3.2 -1.3,10.3 0,12.1 1.8,16.5 10.8,26.1 11,11.8 20.7,15.3 41.8,15.3 32.2,0 55.6,-9.7 78.5,-32.4 10,-10 11.2,-11.7 17.7,-26.6 2.3,-5.2 3.6,-11.9 4.3,-21.8 1.5,-20.6 -6.4,-35.6 -21.8,-41.2 -3.4,-1.3 -6.8,-2.7 -7.5,-3.2 -0.7,-0.6 -1.7,-0.7 -2.2,-0.4 -0.5,0.4 -1.3,0.1 -1.6,-0.5 -0.4,-0.6 -2.9,-0.9 -5.6,-0.8 -2.7,0.2 -5.2,0 -5.6,-0.4 -0.9,-1 -15.5,0.3 -17,1.5 -0.6,0.5 -2,0.8 -3,0.6 -1,-0.1 -2.2,0 -2.8,0.4 -0.5,0.3 -5.1,1.5 -10.1,2.7 -5,1.1 -11,2.8 -13.3,3.5 -2.2,0.8 -7.1,2.2 -10.8,3.2 -3.8,0.9 -7.1,1.9 -7.5,2.3 -0.4,0.3 -3,0.4 -5.7,0.3 -4.9,-0.4 -5.1,-0.5 -5.7,-3.8 -1.4,-7.8 2.6,-16.3 12.3,-26.1 4,-4 8.4,-7.5 9.8,-7.9 1.4,-0.3 2.5,-1 2.5,-1.5 0,-0.5 0.4,-0.9 0.9,-0.9 0.5,0 2.6,-0.8 4.7,-1.7 2.2,-0.9 4.1,-1.7 4.4,-1.8 0.3,0 1,-0.3 1.5,-0.6 2.1,-1.3 7.7,-2.1 15.5,-2.1 9.1,0 15.8,2.5 17.5,6.4 3.2,7.2 20.5,10.1 27.7,4.6 2.8,-2.2 5.8,-8.7 5.8,-12.7 0,-17.7 -29.2,-31.4 -60,-28.1 z"
       id="path44"
       style="fill:#c92027;fill-opacity:1;stroke:none" />
    <path
       d="m 1201,653.7 c -7.7,1.6 -11.8,5.8 -13,13.2 -0.5,3 -1.3,7.2 -1.9,9.4 -1.4,5.4 -0.4,12 2.5,15.5 2.4,2.7 2.4,3.2 2.4,23.4 0,16.9 -0.3,21.3 -1.6,24.4 -2.2,4.9 -2.2,14.8 -0.1,18.9 1.5,2.8 1.7,6.9 1.7,30.1 0,21.4 -0.3,27.8 -1.5,31.2 -1.9,5.4 -1.9,8.5 0.1,14.3 1.4,4 2.3,5 5.9,6.7 5.3,2.4 15.1,2.7 21.6,0.6 2.7,-0.9 20,-2.4 45.4,-4.1 22.6,-1.4 43.3,-3.1 46.2,-3.6 9.5,-1.8 15,-11 12.3,-20.2 -1.8,-6.2 -3.7,-8.7 -8.3,-10.8 -5.1,-2.3 -10.7,-2.4 -16.7,-0.4 -3.8,1.2 -57.7,5.6 -68.7,5.5 l -3.3,0 0,-22.8 0,-22.8 25.8,-2.8 c 14.1,-1.5 29.6,-2.8 34.3,-2.7 7.4,0.1 9,-0.2 11.9,-2.1 5.7,-3.8 8,-8.2 8,-15 0,-9.8 -4.1,-14.8 -13.8,-16.9 -4.1,-0.8 -6.3,-0.7 -11.3,0.5 -3.4,0.9 -12.6,2.3 -20.3,3.2 -7.8,0.8 -14.8,1.8 -15.6,2.1 -0.8,0.3 -3.4,0.5 -5.6,0.4 -2.3,-0.1 -4.5,0.2 -4.9,0.8 -0.3,0.6 -2.4,1.1 -4.6,1.1 l -3.9,0 0.2,-18.8 0.3,-18.7 30.5,-2.2 c 19,-1.3 31.1,-1.8 32.2,-1.2 2.3,1.2 15,1.1 18.5,-0.2 6.4,-2.4 11.2,-10 11.3,-17.6 0,-5.3 -1.4,-9 -4.8,-12.6 -5.8,-6.2 -13.2,-7.7 -22,-4.7 -4.6,1.6 -12.9,2.6 -35.8,4.4 l -29.8,2.3 -3.1,-3.2 c -4.2,-4.5 -12.1,-6.2 -20.5,-4.6 z"
       id="path46"
       style="fill:#c92027;fill-opacity:1;stroke:none" />
    <path
       d="m 2693.5,653.8 c -7.2,1.3 -11.1,5.7 -12,13.6 -0.4,3.3 -1.3,6.9 -2.1,8.1 -2.1,3.4 -1.7,8.9 1.1,13.2 1.3,2.2 2.9,4.2 3.5,4.6 0.6,0.4 1,8.1 1,21.4 0,18.7 -0.2,21.3 -2,25.2 -2.6,5.8 -2.6,13.3 0,18.4 1.8,3.6 2,5.9 2,30.1 0,21 -0.3,26.9 -1.5,29.7 -1.9,4.6 -1.9,12.7 -0.1,17.2 2.2,5.2 6.7,7.5 15,7.5 3.8,0 9.2,-0.7 12,-1.5 3.1,-0.9 20.3,-2.4 44.1,-4 47.9,-3.1 49,-3.2 52.3,-4.9 5.7,-3 7.6,-6.2 8,-13.4 0.3,-6.1 0.1,-7 -2.5,-10.4 -5.6,-7.2 -13.6,-9.6 -22,-6.4 -2.4,0.9 -13.8,2.1 -30.8,3.1 -14.8,0.9 -27.7,1.9 -28.5,2.2 -0.8,0.3 -4.1,0.6 -7.3,0.6 l -5.7,0.2 0,-23.3 c 0,-21.4 0.1,-23.2 1.8,-23.2 0.9,0 9.8,-0.9 19.7,-2.1 9.9,-1.1 24.8,-2.3 33.2,-2.8 15.7,-0.8 19.5,-1.9 21,-5.9 0.4,-0.9 1.3,-2.3 2,-3 0.7,-0.8 1.1,-1.7 0.8,-2.2 -0.3,-0.5 -0.1,-1.1 0.5,-1.5 0.5,-0.3 1,-2.8 1,-5.5 0,-2.7 -0.5,-5.2 -1,-5.5 -0.6,-0.4 -0.8,-1 -0.6,-1.4 0.6,-0.9 -5,-6.4 -8.3,-8.1 -3.4,-1.7 -12.5,-1.6 -20.1,0.2 -3.6,0.9 -12.1,2.1 -19,2.8 -6.9,0.6 -13.2,1.4 -14,1.7 -0.8,0.3 -2.9,0.5 -4.6,0.4 -1.8,-0.1 -3.5,0.2 -3.9,0.8 -0.3,0.6 -2.4,1.1 -4.6,1.1 l -3.9,0 0.2,-18.8 0.3,-18.7 29.5,-2.1 c 17.6,-1.3 30.4,-1.8 31.8,-1.2 1.3,0.4 5.5,0.8 9.3,0.8 9.7,0 15.4,-2.6 18,-8.3 1,-2.3 1.9,-5.1 1.9,-6.3 0,-1.1 0.5,-2.5 1.2,-3.2 0.9,-0.9 0.9,-1.7 0.1,-3.4 -0.6,-1.3 -1.4,-3.5 -1.7,-4.9 -0.7,-3.5 -4.1,-7.6 -7.8,-9.5 -4.1,-2.1 -14.5,-2.2 -18.4,-0.1 -2.4,1.2 -10,2.1 -31,3.7 -15.4,1.1 -29.1,2.5 -30.6,2.9 -2.4,0.8 -3.1,0.5 -5,-1.9 -1.3,-1.5 -3.4,-3.4 -4.8,-4.3 -3.2,-2 -11.2,-2.8 -17.5,-1.7 z"
       id="path48"
       style="fill:#c92027;fill-opacity:1;stroke:none" />
    <path
       d="m 1930.6,705.9 c -2.1,0.5 -5.1,1.8 -6.7,3 -5.5,3.9 -5.8,5.5 -5.2,27.6 0.5,17.2 0.4,20.7 -1.1,24.2 -2,5.2 -2.1,10.3 -0.1,14.2 1.3,2.5 1.5,6.4 1.2,24.2 -0.3,11.6 -0.8,23.1 -1.2,25.5 -1.2,7.1 0,10.4 4.7,13.5 3.6,2.3 5.3,2.7 11.5,2.7 9.2,0 14.2,-2 16.6,-6.7 1.5,-3 1.7,-6.8 1.7,-33.2 0,-25.5 0.2,-30 1.5,-30.5 0.8,-0.3 7.8,-5.3 15.5,-11.1 7.6,-5.8 14.4,-10.5 15,-10.5 0.5,0 1,-0.5 1,-1 0,-0.6 0.5,-1 1.1,-1 0.5,0 2.7,-1.1 4.7,-2.5 2,-1.4 4.3,-2.5 5,-2.5 1.1,0 1.2,7.5 0.8,41.2 -0.2,22.7 -0.5,42.8 -0.5,44.6 -0.2,9.1 4.9,13.2 16.5,13.2 7.9,0 12,-1.7 15.2,-6.4 l 2.3,-3.4 -0.1,-53.6 c 0,-33.4 -0.4,-54.6 -1.1,-56.2 -1.8,-5 -7,-10.3 -12.5,-13 -12.3,-6 -24.7,-2.8 -44.9,11.7 -6.4,4.6 -13.4,9.6 -15.5,11.1 l -3.8,2.8 0.5,-9.3 c 0.6,-10.5 -0.7,-14.6 -5.5,-17 -3.7,-1.9 -11.9,-2.7 -16.6,-1.6 z"
       id="path50"
       style="fill:#c92027;fill-opacity:1;stroke:none" />
    <path
       d="m 1833.5,706.8 c -14.4,1.2 -28.1,4.4 -33.2,7.6 -1.3,0.8 -2.3,1.3 -2.3,1.1 0,-0.2 -5.5,2.4 -12.2,5.7 -14.5,7.2 -16.8,9.7 -16.8,18.3 0,3 0.7,6.7 1.5,8.3 3.6,6.9 12.6,10.4 20.9,8 4.4,-1.2 11,-6.7 12.1,-9.9 0.4,-1.4 11,-7.3 13.5,-7.6 0.3,0 1,-0.3 1.5,-0.6 3.2,-1.9 21.6,-4.1 27,-3.2 l 3.6,0.6 -0.3,6.5 -0.3,6.6 -7.5,1.2 c -9.3,1.5 -23.9,5.1 -25.4,6.3 -0.6,0.5 -5.1,2.6 -10.1,4.6 -17.4,7.1 -33.9,20.7 -41.8,34.3 -2,3.4 -3.6,6.6 -3.5,7 0.1,0.4 -0.5,2 -1.2,3.7 -1.8,4.2 -1.7,18.1 0.2,22.6 2.3,5.3 7.3,10.5 12.5,13 3.7,1.8 7,2.3 17,2.8 6.9,0.3 12.7,0.3 12.9,0 0.2,-0.4 2.5,-0.9 5.1,-1.3 7,-0.9 26.2,-9.6 33.1,-15 3.3,-2.5 6.2,-4.6 6.5,-4.6 0.2,0 0.7,2.4 1,5.4 1.1,10.4 4.9,13 18.3,12.5 7.6,-0.3 9.6,-0.8 12.6,-2.9 4.4,-2.9 6.4,-8.1 5.3,-13.6 -0.4,-2.2 -1,-25.1 -1.4,-50.9 -0.6,-46.4 -0.6,-47.1 -2.9,-51.7 -6.3,-12.7 -20,-17.1 -45.7,-14.8 z m 15.5,69.8 c 0,0.5 -0.7,2.9 -1.6,5.5 -1.2,3.5 -3.4,6.4 -8.8,11.4 -4,3.8 -8.6,7.5 -10.2,8.3 -1.6,0.8 -6.4,3.4 -10.7,5.8 -11.7,6.6 -25.3,10.2 -27.2,7.2 -1.8,-2.9 6.6,-13.9 16.6,-21.6 5.3,-4.1 19.3,-11.4 21.7,-11.4 0.5,0 2.7,-0.8 4.8,-1.7 2.2,-0.9 4.2,-1.6 4.6,-1.5 0.4,0.1 1.9,-0.5 3.5,-1.3 3,-1.6 7.3,-2 7.3,-0.7 z"
       id="path52"
       style="fill:#c92027;fill-opacity:1;stroke:none" />
    <path
       d="m 3386.2231,114.29139 c 8.038,9e-5 15.7497,1.99507 23.1351,5.98498 7.3851,3.99008 13.1892,9.71176 17.4124,17.16507 4.223,7.45345 6.3345,15.25115 6.3346,23.39311 -10e-5,8.10154 -2.0708,15.82835 -6.2122,23.18044 -4.1415,7.35213 -9.915,13.08395 -17.3207,17.19546 -7.4057,4.11151 -15.1888,6.16727 -23.3492,6.16727 -8.1606,0 -15.9437,-2.05576 -23.3493,-6.16727 -7.4057,-4.11151 -13.1792,-9.84333 -17.3207,-17.19546 -4.1414,-7.35209 -6.2121,-15.0789 -6.2121,-23.18044 0,-8.14196 2.1114,-15.93966 6.3345,-23.39311 4.2231,-7.45331 10.0272,-13.17499 17.4125,-17.16507 7.3852,-3.98991 15.097,-5.98489 23.1351,-5.98498 z m 0.061,9.11419 c -6.4469,8e-5 -12.6284,1.60013 -18.5448,4.80014 -5.9164,3.20017 -10.5781,7.79778 -13.985,13.79282 -3.4071,5.99518 -5.1106,12.27383 -5.1106,18.83601 0,6.52175 1.6627,12.73966 4.9881,18.65372 3.3254,5.91412 7.9667,10.53198 13.9239,13.85359 5.9571,3.32162 12.1999,4.98243 18.7284,4.98242 6.5691,1e-5 12.8221,-1.6608 18.7589,-4.98242 5.9367,-3.32161 10.578,-7.93947 13.924,-13.85359 3.3457,-5.91406 5.0185,-12.13197 5.0186,-18.65372 -1e-4,-6.56218 -1.7035,-12.84083 -5.1105,-18.83601 -3.4071,-5.99504 -8.0789,-10.59265 -14.0156,-13.79282 -5.9369,-3.20001 -12.1287,-4.80006 -18.5754,-4.80014 z m -21.2377,62.34111 0,-49.39895 10.0985,0 c 9.4662,7e-5 14.7705,0.0405 15.9131,0.12152 3.3457,0.28362 5.9469,0.94187 7.8034,1.97475 1.8565,1.033 3.407,2.6128 4.6516,4.73938 1.2444,2.1267 1.8666,4.48626 1.8666,7.07869 0,3.56471 -1.1731,6.6129 -3.5192,9.14458 -2.3462,2.53176 -5.6409,4.10142 -9.8844,4.709 1.5097,0.56714 2.6726,1.18489 3.4886,1.85322 0.816,0.66841 1.9382,1.93427 3.3662,3.79759 0.3673,0.48612 1.5913,2.49124 3.6723,6.01536 l 5.8755,9.96486 -12.4855,0 -4.1619,-8.0205 c -2.8154,-5.38746 -5.1412,-8.77997 -6.9773,-10.17751 -1.8361,-1.39747 -4.1618,-2.09623 -6.9771,-2.09627 l -2.6319,0 0,20.29428 z m 10.0985,-28.07173 4.1007,0 c 5.8347,5e-5 9.4559,-0.22274 10.8637,-0.66837 1.4076,-0.44553 2.5195,-1.22531 3.3356,-2.33931 0.816,-1.11391 1.2241,-2.37977 1.2241,-3.79759 0,-1.3772 -0.3979,-2.60255 -1.1935,-3.67606 -0.7956,-1.07338 -1.9279,-1.84303 -3.3968,-2.30892 -1.4689,-0.46578 -5.08,-0.6987 -10.8331,-0.69876 l -4.1007,0 z"
       id="path3865"
       style="font-size:124.89147949px;font-style:normal;font-weight:bold;line-height:125%;letter-spacing:0px;word-spacing:0px;fill:#c92027;fill-opacity:1;stroke:none;font-family:Sans;-inkscape-font-specification:Sans Bold" />
  </g>
</svg>
