<?xml version="1.0" encoding="UTF-8" standalone="no"?>
<svg
   width="855.81964"
   height="797.27826"
   viewBox="0 0 855.81961 797.27823"
   version="1.1"
   id="svg3"
   sodipodi:docname="Sony_Music_2023.svg"
   inkscape:version="1.3 (0e150ed6c4, 2023-07-21)"
   xmlns:inkscape="http://www.inkscape.org/namespaces/inkscape"
   xmlns:sodipodi="http://sodipodi.sourceforge.net/DTD/sodipodi-0.dtd"
   xmlns="http://www.w3.org/2000/svg"
   xmlns:svg="http://www.w3.org/2000/svg">
  <sodipodi:namedview
     id="namedview3"
     pagecolor="#ffffff"
     bordercolor="#000000"
     borderopacity="0.25"
     inkscape:showpageshadow="2"
     inkscape:pageopacity="0.0"
     inkscape:pagecheckerboard="0"
     inkscape:deskcolor="#d1d1d1"
     inkscape:zoom="0.51454092"
     inkscape:cx="672.44409"
     inkscape:cy="609.28099"
     inkscape:window-width="1920"
     inkscape:window-height="1001"
     inkscape:window-x="-9"
     inkscape:window-y="-9"
     inkscape:window-maximized="1"
     inkscape:current-layer="g7" />
  <defs
     id="defs1">
    <clipPath
       clipPathUnits="userSpaceOnUse"
       id="clipPath4">
      <g
         id="g5">
        <path
           d="M 0,0 H 1200 V 1142 H 0 Z"
           id="path4" />
      </g>
    </clipPath>
    <clipPath
       clipPathUnits="userSpaceOnUse"
       id="clipPath5">
      <g
         id="g6">
        <path
           d="M 0,0 H 1200 V 1142 H 0 Z"
           id="path5" />
      </g>
    </clipPath>
  </defs>
  <g
     id="g7"
     transform="translate(-2.0620117,-25.877895)">
    <path
       id="path179"
       style="fill:#f90000;fill-opacity:1;stroke-width:0.715648"
       d="m 368.74904,25.877895 c -9.292,0 -16.8373,7.543892 -16.8373,16.835894 0,9.292002 7.5453,16.837291 16.8373,16.837291 9.292,0 16.83589,-7.545289 16.83589,-16.837291 0,-9.292002 -7.54389,-16.835894 -16.83589,-16.835894 z m 61.26196,0 c -9.292,0 -16.83589,7.543892 -16.83589,16.835894 0,9.292002 7.54389,16.837291 16.83589,16.837291 9.292,0 16.8373,-7.545289 16.8373,-16.837291 0,-9.292002 -7.5453,-16.835894 -16.8373,-16.835894 z m 61.26337,0 c -9.29201,0 -16.8359,7.543892 -16.8359,16.835894 0,9.292002 7.54389,16.837291 16.8359,16.837291 9.292,0 16.83589,-7.545289 16.83589,-16.837291 0,-9.292002 -7.54389,-16.835894 -16.83589,-16.835894 z M 246.22231,87.116102 c -9.30594,0 -16.86245,7.555122 -16.86245,16.861048 0,9.30593 7.55651,16.86245 16.86245,16.86245 9.30592,0 16.86105,-7.55652 16.86105,-16.86245 0,-9.305926 -7.55513,-16.861048 -16.86105,-16.861048 z m 367.57879,0 c -9.30593,0 -16.86106,7.555122 -16.86106,16.861048 0,9.30593 7.55513,16.86245 16.86106,16.86245 9.30593,0 16.86245,-7.55652 16.86245,-16.86245 0,-9.305926 -7.55652,-16.861048 -16.86245,-16.861048 z m -306.31682,0.02376 c -9.2929,0 -16.8373,7.544402 -16.8373,16.837288 0,9.2929 7.5444,16.83869 16.8373,16.83869 9.29288,0 16.83868,-7.54579 16.83868,-16.83869 0,-9.292886 -7.5458,-16.837288 -16.83868,-16.837288 z m 245.05345,0 c -9.29289,0 -16.83729,7.544402 -16.83729,16.837288 0,9.2929 7.5444,16.83869 16.83729,16.83869 9.2929,0 16.83869,-7.54579 16.83869,-16.83869 0,-9.292886 -7.54579,-16.837288 -16.83869,-16.837288 z m -183.78869,0.0014 c -9.292,0 -16.8373,7.543901 -16.8373,16.835888 0,9.29202 7.5453,16.83589 16.8373,16.83589 9.292,0 16.83589,-7.54388 16.83589,-16.83589 0,-9.291987 -7.54389,-16.835888 -16.83589,-16.835888 z m 61.26196,0 c -9.292,0 -16.83589,7.543901 -16.83589,16.835888 0,9.29202 7.54389,16.83589 16.83589,16.83589 9.292,0 16.8373,-7.54388 16.8373,-16.83589 0,-9.291987 -7.5453,-16.835888 -16.8373,-16.835888 z m 61.26337,0 c -9.29201,0 -16.8359,7.543901 -16.8359,16.835888 0,9.29202 7.54389,16.83589 16.8359,16.83589 9.292,0 16.83589,-7.54388 16.83589,-16.83589 0,-9.291987 -7.54389,-16.835888 -16.83589,-16.835888 z M 184.95894,148.37947 c -9.30592,0 -16.86245,7.55512 -16.86245,16.86105 0,9.30592 7.55653,16.86245 16.86245,16.86245 9.30594,0 16.86106,-7.55653 16.86106,-16.86245 0,-9.30593 -7.55512,-16.86105 -16.86106,-16.86105 z m 490.10552,0 c -9.30593,0 -16.86105,7.55512 -16.86105,16.86105 0,9.30592 7.55512,16.86245 16.86105,16.86245 9.30593,0 16.86245,-7.55653 16.86245,-16.86245 0,-9.30593 -7.55652,-16.86105 -16.86245,-16.86105 z m -428.84215,0.0224 c -9.29346,0 -16.84009,7.54523 -16.84009,16.83869 0,9.29345 7.54663,16.84008 16.84009,16.84008 9.29345,0 16.83869,-7.54663 16.83869,-16.84008 0,-9.29346 -7.54524,-16.83869 -16.83869,-16.83869 z m 367.57879,0 c -9.29345,0 -16.83869,7.54523 -16.83869,16.83869 0,9.29345 7.54524,16.84008 16.83869,16.84008 9.29346,0 16.83869,-7.54663 16.83869,-16.84008 0,-9.29346 -7.54523,-16.83869 -16.83869,-16.83869 z m -306.31682,0.003 c -9.29201,0 -16.8359,7.54529 -16.8359,16.8373 0,9.29199 7.54389,16.83589 16.8359,16.83589 9.29199,0 16.83729,-7.5439 16.83729,-16.83589 0,-9.29201 -7.5453,-16.8373 -16.83729,-16.8373 z m 61.26476,0 c -9.292,0 -16.8373,7.54529 -16.8373,16.8373 0,9.29199 7.5453,16.83589 16.8373,16.83589 9.292,0 16.83589,-7.5439 16.83589,-16.83589 0,-9.29201 -7.54389,-16.8373 -16.83589,-16.8373 z m 61.26196,0 c -9.292,0 -16.83589,7.54529 -16.83589,16.8373 0,9.29199 7.54389,16.83589 16.83589,16.83589 9.292,0 16.8373,-7.5439 16.8373,-16.83589 0,-9.29201 -7.5453,-16.8373 -16.8373,-16.8373 z m 61.26337,0 c -9.29201,0 -16.8359,7.54529 -16.8359,16.8373 0,9.29199 7.54389,16.83589 16.8359,16.83589 9.292,0 16.83589,-7.5439 16.83589,-16.83589 0,-9.29201 -7.54389,-16.8373 -16.83589,-16.8373 z m 61.26336,0 c -9.292,0 -16.83589,7.54529 -16.83589,16.8373 0,9.29199 7.54389,16.83589 16.83589,16.83589 9.29201,0 16.83729,-7.5439 16.83729,-16.83589 0,-9.29201 -7.54528,-16.8373 -16.83729,-16.8373 z m -367.57879,61.26197 c -9.29289,0 -16.83869,7.5444 -16.83869,16.83729 0,9.2929 7.5458,16.83869 16.83869,16.83869 9.2929,0 16.83729,-7.54579 16.83729,-16.83869 0,-9.29289 -7.54439,-16.83729 -16.83729,-16.83729 z m 490.10552,0 c -9.29289,0 -16.83729,7.5444 -16.83729,16.83729 0,9.2929 7.5444,16.83869 16.83729,16.83869 9.2929,0 16.83869,-7.54579 16.83869,-16.83869 0,-9.29289 -7.54579,-16.83729 -16.83869,-16.83729 z m -428.84215,0.001 c -9.29201,0 -16.83729,7.54388 -16.83729,16.83589 0,9.29201 7.54528,16.83589 16.83729,16.83589 9.292,0 16.83589,-7.54388 16.83589,-16.83589 0,-9.29201 -7.54389,-16.83589 -16.83589,-16.83589 z m 61.26197,0 c -9.29201,0 -16.8359,7.54388 -16.8359,16.83589 0,9.29201 7.54389,16.83589 16.8359,16.83589 9.29199,0 16.83729,-7.54388 16.83729,-16.83589 0,-9.29201 -7.5453,-16.83589 -16.83729,-16.83589 z m 61.26476,0 c -9.292,0 -16.8373,7.54388 -16.8373,16.83589 0,9.29201 7.5453,16.83589 16.8373,16.83589 9.292,0 16.83589,-7.54388 16.83589,-16.83589 0,-9.29201 -7.54389,-16.83589 -16.83589,-16.83589 z m 61.26196,0 c -9.292,0 -16.83589,7.54388 -16.83589,16.83589 0,9.29201 7.54389,16.83589 16.83589,16.83589 9.292,0 16.8373,-7.54388 16.8373,-16.83589 0,-9.29201 -7.5453,-16.83589 -16.8373,-16.83589 z m 61.26337,0 c -9.29201,0 -16.8359,7.54388 -16.8359,16.83589 0,9.29201 7.54389,16.83589 16.8359,16.83589 9.292,0 16.83589,-7.54388 16.83589,-16.83589 0,-9.29201 -7.54389,-16.83589 -16.83589,-16.83589 z m 61.26336,0 c -9.292,0 -16.83589,7.54388 -16.83589,16.83589 0,9.29201 7.54389,16.83589 16.83589,16.83589 9.29201,0 16.83729,-7.54388 16.83729,-16.83589 0,-9.29201 -7.54528,-16.83589 -16.83729,-16.83589 z m 61.26337,0 c -9.292,0 -16.8359,7.54388 -16.8359,16.83589 0,9.29201 7.5439,16.83589 16.8359,16.83589 9.292,0 16.83729,-7.54388 16.83729,-16.83589 0,-9.29201 -7.54529,-16.83589 -16.83729,-16.83589 z M 123.69558,270.9312 c -9.292,0 -16.83729,7.5439 -16.83729,16.8359 0,9.292 7.54529,16.83589 16.83729,16.83589 9.292,0 16.83589,-7.54389 16.83589,-16.83589 0,-9.292 -7.54389,-16.8359 -16.83589,-16.8359 z m 61.26336,0 c -9.292,0 -16.83729,7.5439 -16.83729,16.8359 0,9.292 7.54529,16.83589 16.83729,16.83589 9.29201,0 16.8359,-7.54389 16.8359,-16.83589 0,-9.292 -7.54389,-16.8359 -16.8359,-16.8359 z m 61.26337,0 c -9.29201,0 -16.83729,7.5439 -16.83729,16.8359 0,9.292 7.54528,16.83589 16.83729,16.83589 9.292,0 16.83589,-7.54389 16.83589,-16.83589 0,-9.292 -7.54389,-16.8359 -16.83589,-16.8359 z m 61.26197,0 c -9.29201,0 -16.8359,7.5439 -16.8359,16.8359 0,9.292 7.54389,16.83589 16.8359,16.83589 9.29199,0 16.83729,-7.54389 16.83729,-16.83589 0,-9.292 -7.5453,-16.8359 -16.83729,-16.8359 z m 61.26476,0 c -9.292,0 -16.8373,7.5439 -16.8373,16.8359 0,9.292 7.5453,16.83589 16.8373,16.83589 9.292,0 16.83589,-7.54389 16.83589,-16.83589 0,-9.292 -7.54389,-16.8359 -16.83589,-16.8359 z m 61.26196,0 c -9.292,0 -16.83589,7.5439 -16.83589,16.8359 0,9.292 7.54389,16.83589 16.83589,16.83589 9.292,0 16.8373,-7.54389 16.8373,-16.83589 0,-9.292 -7.5453,-16.8359 -16.8373,-16.8359 z m 61.26337,0 c -9.29201,0 -16.8359,7.5439 -16.8359,16.8359 0,9.292 7.54389,16.83589 16.8359,16.83589 9.292,0 16.83589,-7.54389 16.83589,-16.83589 0,-9.292 -7.54389,-16.8359 -16.83589,-16.8359 z m 61.26336,0 c -9.292,0 -16.83589,7.5439 -16.83589,16.8359 0,9.292 7.54389,16.83589 16.83589,16.83589 9.29201,0 16.83729,-7.54389 16.83729,-16.83589 0,-9.292 -7.54528,-16.8359 -16.83729,-16.8359 z m 61.26337,0 c -9.292,0 -16.8359,7.5439 -16.8359,16.8359 0,9.292 7.5439,16.83589 16.8359,16.83589 9.292,0 16.83729,-7.54389 16.83729,-16.83589 0,-9.292 -7.54529,-16.8359 -16.83729,-16.8359 z m 61.26336,0 c -9.292,0 -16.83589,7.5439 -16.83589,16.8359 0,9.292 7.54389,16.83589 16.83589,16.83589 9.292,0 16.83729,-7.54389 16.83729,-16.83589 0,-9.292 -7.54529,-16.8359 -16.83729,-16.8359 z m 61.26334,0 c -9.29204,0 -16.8359,7.5439 -16.8359,16.8359 0,9.292 7.54386,16.83589 16.8359,16.83589 9.29204,0 16.83733,-7.54389 16.83733,-16.83589 0,-9.292 -7.54529,-16.8359 -16.83733,-16.8359 z m -612.63222,61.26337 c -9.292,0 -16.83729,7.54389 -16.83729,16.83589 0,9.29201 7.54529,16.83729 16.83729,16.83729 9.292,0 16.83589,-7.54528 16.83589,-16.83729 0,-9.292 -7.54389,-16.83589 -16.83589,-16.83589 z m 61.26336,0 c -9.292,0 -16.83729,7.54389 -16.83729,16.83589 0,9.29201 7.54529,16.83729 16.83729,16.83729 9.29201,0 16.8359,-7.54528 16.8359,-16.83729 0,-9.292 -7.54389,-16.83589 -16.8359,-16.83589 z m 61.26337,0 c -9.29201,0 -16.83729,7.54389 -16.83729,16.83589 0,9.29201 7.54528,16.83729 16.83729,16.83729 9.292,0 16.83589,-7.54528 16.83589,-16.83729 0,-9.292 -7.54389,-16.83589 -16.83589,-16.83589 z m 61.26197,0 c -9.29201,0 -16.8359,7.54389 -16.8359,16.83589 0,9.29201 7.54389,16.83729 16.8359,16.83729 9.29199,0 16.83729,-7.54528 16.83729,-16.83729 0,-9.292 -7.5453,-16.83589 -16.83729,-16.83589 z m 61.26476,0 c -9.292,0 -16.8373,7.54389 -16.8373,16.83589 0,9.29201 7.5453,16.83729 16.8373,16.83729 9.292,0 16.83589,-7.54528 16.83589,-16.83729 0,-9.292 -7.54389,-16.83589 -16.83589,-16.83589 z m 61.26196,0 c -9.292,0 -16.83589,7.54389 -16.83589,16.83589 0,9.29201 7.54389,16.83729 16.83589,16.83729 9.292,0 16.8373,-7.54528 16.8373,-16.83729 0,-9.292 -7.5453,-16.83589 -16.8373,-16.83589 z m 61.26337,0 c -9.29201,0 -16.8359,7.54389 -16.8359,16.83589 0,9.29201 7.54389,16.83729 16.8359,16.83729 9.292,0 16.83589,-7.54528 16.83589,-16.83729 0,-9.292 -7.54389,-16.83589 -16.83589,-16.83589 z m 61.26336,0 c -9.292,0 -16.83589,7.54389 -16.83589,16.83589 0,9.29201 7.54389,16.83729 16.83589,16.83729 9.29201,0 16.83729,-7.54528 16.83729,-16.83729 0,-9.292 -7.54528,-16.83589 -16.83729,-16.83589 z m 61.26337,0 c -9.292,0 -16.8359,7.54389 -16.8359,16.83589 0,9.29201 7.5439,16.83729 16.8359,16.83729 9.292,0 16.83729,-7.54528 16.83729,-16.83729 0,-9.292 -7.54529,-16.83589 -16.83729,-16.83589 z m 61.26336,0 c -9.292,0 -16.83589,7.54389 -16.83589,16.83589 0,9.29201 7.54389,16.83729 16.83589,16.83729 9.292,0 16.83729,-7.54528 16.83729,-16.83729 0,-9.292 -7.54529,-16.83589 -16.83729,-16.83589 z m 61.26334,0 c -9.29204,0 -16.8359,7.54389 -16.8359,16.83589 0,9.29201 7.54386,16.83729 16.8359,16.83729 9.29204,0 16.83733,-7.54528 16.83733,-16.83729 0,-9.292 -7.54529,-16.83589 -16.83733,-16.83589 z m -612.63222,61.26336 c -9.292,0 -16.83729,7.54389 -16.83729,16.8359 0,9.292 7.54529,16.83589 16.83729,16.83589 9.292,0 16.83589,-7.54389 16.83589,-16.83589 0,-9.29201 -7.54389,-16.8359 -16.83589,-16.8359 z m 61.26336,0 c -9.292,0 -16.83729,7.54389 -16.83729,16.8359 0,9.292 7.54529,16.83589 16.83729,16.83589 9.29201,0 16.8359,-7.54389 16.8359,-16.83589 0,-9.29201 -7.54389,-16.8359 -16.8359,-16.8359 z m 61.26337,0 c -9.29201,0 -16.83729,7.54389 -16.83729,16.8359 0,9.292 7.54528,16.83589 16.83729,16.83589 9.292,0 16.83589,-7.54389 16.83589,-16.83589 0,-9.29201 -7.54389,-16.8359 -16.83589,-16.8359 z m 61.26197,0 c -9.29201,0 -16.8359,7.54389 -16.8359,16.8359 0,9.292 7.54389,16.83589 16.8359,16.83589 9.29199,0 16.83729,-7.54389 16.83729,-16.83589 0,-9.29201 -7.5453,-16.8359 -16.83729,-16.8359 z m 61.26476,0 c -9.292,0 -16.8373,7.54389 -16.8373,16.8359 0,9.292 7.5453,16.83589 16.8373,16.83589 9.292,0 16.83589,-7.54389 16.83589,-16.83589 0,-9.29201 -7.54389,-16.8359 -16.83589,-16.8359 z m 61.26196,0 c -9.292,0 -16.83589,7.54389 -16.83589,16.8359 0,9.292 7.54389,16.83589 16.83589,16.83589 9.292,0 16.8373,-7.54389 16.8373,-16.83589 0,-9.29201 -7.5453,-16.8359 -16.8373,-16.8359 z m 61.26337,0 c -9.29201,0 -16.8359,7.54389 -16.8359,16.8359 0,9.292 7.54389,16.83589 16.8359,16.83589 9.292,0 16.83589,-7.54389 16.83589,-16.83589 0,-9.29201 -7.54389,-16.8359 -16.83589,-16.8359 z m 61.26336,0 c -9.292,0 -16.83589,7.54389 -16.83589,16.8359 0,9.292 7.54389,16.83589 16.83589,16.83589 9.29201,0 16.83729,-7.54389 16.83729,-16.83589 0,-9.29201 -7.54528,-16.8359 -16.83729,-16.8359 z m 61.26337,0 c -9.292,0 -16.8359,7.54389 -16.8359,16.8359 0,9.292 7.5439,16.83589 16.8359,16.83589 9.292,0 16.83729,-7.54389 16.83729,-16.83589 0,-9.29201 -7.54529,-16.8359 -16.83729,-16.8359 z m 61.26336,0 c -9.292,0 -16.83589,7.54389 -16.83589,16.8359 0,9.292 7.54389,16.83589 16.83589,16.83589 9.292,0 16.83729,-7.54389 16.83729,-16.83589 0,-9.29201 -7.54529,-16.8359 -16.83729,-16.8359 z m 61.26334,0 c -9.29204,0 -16.8359,7.54389 -16.8359,16.8359 0,9.292 7.54386,16.83589 16.8359,16.83589 9.29204,0 16.83733,-7.54389 16.83733,-16.83589 0,-9.29201 -7.54529,-16.8359 -16.83733,-16.8359 z M 184.95894,454.7185 c -9.29289,0 -16.83869,7.5458 -16.83869,16.83869 0,9.2929 7.5458,16.83729 16.83869,16.83729 9.2929,0 16.83729,-7.54439 16.83729,-16.83729 0,-9.29289 -7.54439,-16.83869 -16.83729,-16.83869 z m 490.10552,0 c -9.29289,0 -16.83729,7.5458 -16.83729,16.83869 0,9.2929 7.5444,16.83729 16.83729,16.83729 9.2929,0 16.83869,-7.54439 16.83869,-16.83729 0,-9.29289 -7.54579,-16.83869 -16.83869,-16.83869 z m -428.84215,10e-4 c -9.29201,0 -16.83729,7.54529 -16.83729,16.83729 0,9.292 7.54528,16.8359 16.83729,16.8359 9.292,0 16.83589,-7.5439 16.83589,-16.8359 0,-9.292 -7.54389,-16.83729 -16.83589,-16.83729 z m 61.26197,0 c -9.29201,0 -16.8359,7.54529 -16.8359,16.83729 0,9.292 7.54389,16.8359 16.8359,16.8359 9.29199,0 16.83729,-7.5439 16.83729,-16.8359 0,-9.292 -7.5453,-16.83729 -16.83729,-16.83729 z m 61.26476,0 c -9.292,0 -16.8373,7.54529 -16.8373,16.83729 0,9.292 7.5453,16.8359 16.8373,16.8359 9.292,0 16.83589,-7.5439 16.83589,-16.8359 0,-9.292 -7.54389,-16.83729 -16.83589,-16.83729 z m 61.26196,0 c -9.292,0 -16.83589,7.54529 -16.83589,16.83729 0,9.292 7.54389,16.8359 16.83589,16.8359 9.292,0 16.8373,-7.5439 16.8373,-16.8359 0,-9.292 -7.5453,-16.83729 -16.8373,-16.83729 z m 61.26337,0 c -9.29201,0 -16.8359,7.54529 -16.8359,16.83729 0,9.292 7.54389,16.8359 16.8359,16.8359 9.292,0 16.83589,-7.5439 16.83589,-16.8359 0,-9.292 -7.54389,-16.83729 -16.83589,-16.83729 z m 61.26336,0 c -9.292,0 -16.83589,7.54529 -16.83589,16.83729 0,9.292 7.54389,16.8359 16.83589,16.8359 9.29201,0 16.83729,-7.5439 16.83729,-16.8359 0,-9.292 -7.54528,-16.83729 -16.83729,-16.83729 z m 61.26337,0 c -9.292,0 -16.8359,7.54529 -16.8359,16.83729 0,9.292 7.5439,16.8359 16.8359,16.8359 9.292,0 16.83729,-7.5439 16.83729,-16.8359 0,-9.292 -7.54529,-16.83729 -16.83729,-16.83729 z m -428.84216,61.2396 c -9.30592,0 -16.86245,7.55513 -16.86245,16.86106 0,9.30592 7.55653,16.86105 16.86245,16.86105 9.30594,0 16.86106,-7.55513 16.86106,-16.86105 0,-9.30593 -7.55512,-16.86106 -16.86106,-16.86106 z m 490.10552,0 c -9.30593,0 -16.86105,7.55513 -16.86105,16.86106 0,9.30592 7.55512,16.86105 16.86105,16.86105 9.30593,0 16.86245,-7.55513 16.86245,-16.86105 0,-9.30593 -7.55652,-16.86106 -16.86245,-16.86106 z m -428.84215,0.0224 c -9.29346,0 -16.84009,7.54523 -16.84009,16.83869 0,9.29345 7.54663,16.83868 16.84009,16.83868 9.29345,0 16.83869,-7.54523 16.83869,-16.83868 0,-9.29346 -7.54524,-16.83869 -16.83869,-16.83869 z m 367.57879,0 c -9.29345,0 -16.83869,7.54523 -16.83869,16.83869 0,9.29345 7.54524,16.83868 16.83869,16.83868 9.29346,0 16.83869,-7.54523 16.83869,-16.83868 0,-9.29346 -7.54523,-16.83869 -16.83869,-16.83869 z m -306.31682,0.003 c -9.29201,0 -16.8359,7.54389 -16.8359,16.8359 0,9.292 7.54389,16.83729 16.8359,16.83729 9.29199,0 16.83729,-7.54529 16.83729,-16.83729 0,-9.29201 -7.5453,-16.8359 -16.83729,-16.8359 z m 61.26476,0 c -9.292,0 -16.8373,7.54389 -16.8373,16.8359 0,9.292 7.5453,16.83729 16.8373,16.83729 9.292,0 16.83589,-7.54529 16.83589,-16.83729 0,-9.29201 -7.54389,-16.8359 -16.83589,-16.8359 z m 61.26196,0 c -9.292,0 -16.83589,7.54389 -16.83589,16.8359 0,9.292 7.54389,16.83729 16.83589,16.83729 9.292,0 16.8373,-7.54529 16.8373,-16.83729 0,-9.29201 -7.5453,-16.8359 -16.8373,-16.8359 z m 61.26337,0 c -9.29201,0 -16.8359,7.54389 -16.8359,16.8359 0,9.292 7.54389,16.83729 16.8359,16.83729 9.292,0 16.83589,-7.54529 16.83589,-16.83729 0,-9.29201 -7.54389,-16.8359 -16.83589,-16.8359 z m 61.26336,0 c -9.292,0 -16.83589,7.54389 -16.83589,16.8359 0,9.292 7.54389,16.83729 16.83589,16.83729 9.29201,0 16.83729,-7.54529 16.83729,-16.83729 0,-9.29201 -7.54528,-16.8359 -16.83729,-16.8359 z m -306.31542,61.23681 c -9.30594,0 -16.86245,7.55652 -16.86245,16.86245 0,9.30593 7.55651,16.86105 16.86245,16.86105 9.30592,0 16.86105,-7.55512 16.86105,-16.86105 0,-9.30593 -7.55513,-16.86245 -16.86105,-16.86245 z m 367.57879,0 c -9.30593,0 -16.86106,7.55652 -16.86106,16.86245 0,9.30593 7.55513,16.86105 16.86106,16.86105 9.30593,0 16.86245,-7.55512 16.86245,-16.86105 0,-9.30593 -7.55652,-16.86245 -16.86245,-16.86245 z m -306.31682,0.0238 c -9.2929,0 -16.8373,7.54579 -16.8373,16.83869 0,9.2929 7.5444,16.83729 16.8373,16.83729 9.29288,0 16.83868,-7.54439 16.83868,-16.83729 0,-9.2929 -7.5458,-16.83869 -16.83868,-16.83869 z m 245.05345,0 c -9.29289,0 -16.83729,7.54579 -16.83729,16.83869 0,9.2929 7.5444,16.83729 16.83729,16.83729 9.2929,0 16.83869,-7.54439 16.83869,-16.83729 0,-9.2929 -7.54579,-16.83869 -16.83869,-16.83869 z m -183.78869,0.001 c -9.292,0 -16.8373,7.54529 -16.8373,16.83729 0,9.292 7.5453,16.83589 16.8373,16.83589 9.292,0 16.83589,-7.54389 16.83589,-16.83589 0,-9.292 -7.54389,-16.83729 -16.83589,-16.83729 z m 61.26196,0 c -9.292,0 -16.83589,7.54529 -16.83589,16.83729 0,9.292 7.54389,16.83589 16.83589,16.83589 9.292,0 16.8373,-7.54389 16.8373,-16.83589 0,-9.292 -7.5453,-16.83729 -16.8373,-16.83729 z m 61.26337,0 c -9.29201,0 -16.8359,7.54529 -16.8359,16.83729 0,9.292 7.54389,16.83589 16.8359,16.83589 9.292,0 16.83589,-7.54389 16.83589,-16.83589 0,-9.292 -7.54389,-16.83729 -16.83589,-16.83729 z m -122.49039,61.25777 c -9.28719,0 -16.82751,7.54032 -16.82751,16.82751 0,9.2872 7.54032,16.82751 16.82751,16.82751 9.28719,0 16.82751,-7.54031 16.82751,-16.82751 0,-9.28719 -7.54032,-16.82751 -16.82751,-16.82751 z m 61.22702,0.007 c -9.292,0 -16.83589,7.54389 -16.83589,16.83589 0,9.292 7.54389,16.8359 16.83589,16.8359 9.292,0 16.8373,-7.5439 16.8373,-16.8359 0,-9.292 -7.5453,-16.83589 -16.8373,-16.83589 z m 61.26337,0 c -9.29201,0 -16.8359,7.54389 -16.8359,16.83589 0,9.292 7.54389,16.8359 16.8359,16.8359 9.292,0 16.83589,-7.5439 16.83589,-16.8359 0,-9.292 -7.54389,-16.83589 -16.83589,-16.83589 z" />
    <path
       id="path187"
       style="fill:#000000;fill-opacity:1;stroke-width:0.715648"
       d="m 821.89802,758.06388 c -0.48091,-7.2e-4 -0.97249,0.01 -1.46343,0.0195 h -0.10341 c -12.30556,0.33921 -25.10993,4.67583 -32.50329,11.37071 -1.76049,1.59446 -3.27273,3.40548 -4.52726,5.31984 -3.11307,4.75119 -4.7426,10.23033 -4.7426,15.73724 0,0.55606 0.0196,1.11283 0.0475,1.66889 0.39647,7.23305 3.45136,14.19194 9.22234,19.41617 6.94679,6.28839 16.81264,10.07167 27.67546,11.13727 10.38978,1.01908 21.05801,-0.64194 28.35611,-4.77194 7.2123,-4.08134 12.21182,-10.94856 13.92722,-18.4922 0.0344,-0.14957 0.0578,-0.32004 0.095,-0.47104 l -8.44936,10e-4 c -1.349,4.47924 -5.88442,9.60958 -10.18403,11.66563 -3.99188,1.90863 -9.14705,3.93177 -17.36985,3.8187 -0.14169,-0.002 -1.31979,-0.0371 -1.7821,-0.0657 -1.39623,-0.0852 -2.76391,-0.25455 -4.11219,-0.54654 -4.77122,-1.03411 -9.14662,-3.17891 -12.40926,-6.41285 -4.35185,-4.31392 -6.64765,-10.43829 -6.64765,-16.94496 0,-6.52528 2.2915,-12.63555 6.64765,-16.99241 4.40839,-4.40911 10.92973,-6.67628 17.75701,-6.79866 h 0.33965 0.91417 c 7.55366,0.11379 11.94695,1.11205 17.59628,3.96963 3.56321,1.80272 8.57138,6.9961 9.62768,12.28617 h 7.81759 v -21.35064 h -8.11953 v 2.29093 c 0,0.39647 -0.20803,0.83896 -0.60379,1.0651 -0.37714,0.20754 -0.92461,0.23645 -1.64098,-0.13139 -3.5124,-1.80343 -12.79464,-6.76953 -25.36499,-6.78885 z m -786.044014,0.0936 c -7.15005,-0.0372 -15.295581,1.39601 -22.152933,4.45183 -6.38142,2.84327 -11.6390613,7.43994 -11.6390613,15.08736 0,6.84588 4.3760918,10.87269 4.2393745,10.74029 1.8835966,1.70682 4.8704668,4.64778 12.6831798,6.33599 3.477335,0.75143 10.924687,1.9057 18.385998,2.74516 7.35185,0.82728 14.64108,1.50794 17.607452,2.2336 2.370231,0.57968 6.267509,1.4343 6.267509,5.8384 0,4.44131 -4.14459,5.76168 -4.879544,6.05367 -0.739278,0.29413 -5.700425,2.56488 -14.688951,2.56488 -6.624758,0 -14.56202,-1.9812 -17.473267,-2.97159 -3.34206,-1.13645 -6.812635,-2.81765 -10.091752,-6.82527 -0.808685,-0.98831 -2.065874,-3.70742 -2.065874,-6.39467 H 3.8720974 v 22.71623 H 12.90156 v -3.07363 c 0,-0.30201 0.471392,-1.77216 1.947065,-1.0651 1.867828,0.89527 7.404497,3.03535 13.222711,4.25195 4.720414,0.98688 7.782675,1.6885 13.657411,1.6885 9.628301,0 14.792343,-1.55632 18.342668,-2.57469 3.422256,-0.98115 7.574649,-2.72526 10.903845,-5.39391 1.819174,-1.45777 5.820232,-5.17721 5.820232,-11.94795 0,-6.51598 -3.453738,-10.5611 -4.710419,-11.76769 -1.712525,-1.64384 -3.690323,-2.97058 -5.82582,-3.96962 -1.872852,-0.87596 -4.788693,-1.92331 -7.174649,-2.48938 -4.688921,-1.11212 -15.176464,-2.58392 -20.169527,-3.08344 -5.269335,-0.52744 -14.426571,-1.32946 -18.047743,-2.4516 -1.11929,-0.34709 -3.399327,-1.43394 -3.399327,-4.03675 0,-1.84781 1.072296,-3.45129 3.090425,-4.75233 3.183197,-2.05248 9.806443,-3.25398 16.584299,-3.25398 8.086104,0 14.897176,1.77223 19.22325,3.71521 1.507865,0.677 3.203338,1.63282 4.587414,2.75496 1.559363,1.26455 3.704999,3.88482 4.499356,7.53391 h 7.301843 v -19.77535 h -8.12372 v 2.29229 c 0,0.7636 -0.765684,1.6973 -2.239194,0.9337 -3.655505,-1.89432 -13.90867,-6.04586 -26.537674,-6.11098 z m 97.662164,0 c -12.75141,0 -26.3432,4.40409 -34.044991,11.39168 -6.129517,5.5613 -9.27826,13.3152 -9.27826,21.05708 0,7.82632 3.06215,15.45577 9.27826,21.08505 8.269301,7.48854 20.694591,11.45595 34.044991,11.45595 13.42266,0 26.09569,-3.95953 34.13024,-11.45595 5.96922,-5.56988 9.14269,-13.57004 9.14269,-21.08505 0,-7.77981 -2.98025,-15.41799 -9.14269,-21.01937 -8.63212,-7.84636 -19.92895,-11.42939 -34.13024,-11.42939 z m 536.21308,0 c -7.13786,-0.0372 -15.28446,1.39601 -22.14035,4.45183 -6.3843,2.84541 -11.64745,7.43994 -11.64745,15.08736 0,6.84517 4.37738,10.72126 4.24497,10.57956 1.87643,1.72543 4.86544,4.4607 12.68318,6.1389 3.47589,0.74642 11.00369,1.79205 18.46287,2.6222 7.34898,0.81799 14.55992,1.76322 17.53058,2.47958 2.37022,0.5718 6.26051,1.6691 6.26051,6.0732 0,4.44131 -4.13918,5.75166 -4.86556,6.05367 -0.74713,0.31059 -5.70538,2.56488 -14.69175,2.56488 -6.62903,0 -14.56824,-1.98027 -17.48165,-2.98003 -3.33779,-1.14504 -6.8198,-2.80921 -10.09175,-6.81683 -0.81297,-0.99618 -2.06448,-3.71672 -2.06448,-6.39467 h -8.16565 v 22.71623 h 9.02387 v -3.07363 c 0,-0.30201 0.47174,-1.77216 1.93309,-1.0651 1.88,0.90959 7.41197,3.03535 13.23948,4.25195 4.72328,0.98616 7.77056,1.67869 13.65462,1.67869 9.62758,0 14.78524,-1.55582 18.33987,-2.56488 3.43438,-0.97471 7.57306,-2.72526 10.91083,-5.39391 1.81631,-1.45205 5.80765,-5.17721 5.80765,-11.94795 0,-6.51598 -3.45028,-10.29617 -4.70482,-11.50347 -1.70538,-1.64169 -3.68672,-2.86645 -5.82722,-3.86621 -1.87713,-0.87667 -4.60162,-1.71598 -6.97757,-2.27276 -4.69892,-1.10067 -15.38134,-2.61326 -20.3694,-3.11278 -5.26645,-0.52743 -14.39861,-1.55381 -18.01979,-2.67667 -1.12571,-0.34923 -3.4133,-1.76378 -3.4133,-4.36659 0,-1.84852 1.06532,-3.45129 3.08343,-4.75233 3.18678,-2.05391 9.8073,-3.25398 16.57731,-3.25398 8.09111,0 14.88966,1.77223 19.23723,3.71521 1.47137,0.72638 3.19703,1.63282 4.58322,2.75496 1.55368,1.25739 3.69596,3.88482 4.48818,7.53391 h 7.29905 v -19.77399 h -8.10975 v 2.29093 c 0,0.7636 -0.76459,1.6973 -2.25457,0.9337 -3.65267,-1.87213 -13.90872,-6.04514 -26.53488,-6.11098 z m 56.53196,3.65932 v 7.2236 h 7.67368 c 3.28124,0 3.0946,2.54807 3.0946,2.54807 l -0.0937,38.19491 c 0,0 0.17985,2.54806 -3.10999,2.54806 h -7.66802 v 7.2138 h 40.25519 v -7.2138 h -8.04123 c -3.28984,0 -3.11143,-2.56481 -3.11143,-2.56481 l -0.0936,-38.17816 c 0,0 -0.18664,-2.54807 3.0946,-2.54807 h 8.05662 v -7.2236 z m -443.55764,0.0167 v 7.17609 h 7.0824 c 3.08301,0 5.0638,1.95887 6.23676,3.21483 0.93391,0.99976 21.17753,23.99632 21.6749,24.6311 0.49452,0.63192 0.49481,0.7349 0.49481,1.01758 v 11.76067 c 0,2.88406 -3.03731,2.69627 -3.03731,2.69627 h -7.73515 v 7.2138 h 39.5661 v -7.23334 h -8.24254 c 0,0 -2.91151,0.20275 -2.91151,-2.54391 v -11.64888 c 0,0 -0.0311,-0.96434 0.28235,-1.32646 0.54674,-0.63191 21.05267,-23.98615 21.95725,-25.0267 1.9759,-2.2729 3.05008,-2.7536 5.69583,-2.7536 h 7.27388 v -7.17458 h -32.59831 v 7.17458 h 4.88374 c 1.45205,0 1.84854,1.46264 1.22163,2.24484 l -13.80417,16.14123 h -0.4403 l -13.48408,-16.14266 c -0.98544,-1.20658 -0.18782,-2.24477 0.87778,-2.24477 h 4.79009 v -7.17609 z m 168.69859,0.001 -37.23745,10e-4 v 7.19419 h 6.30665 c 4.5551,0 4.87675,2.53547 4.87675,4.74253 v 33.76827 c 0,2.04603 0.13211,4.79004 -2.7913,4.79004 h -7.81762 v 7.2138 h 31.37249 v -7.2138 h -6.15709 c -3.23472,0 -3.41408,-1.45212 -3.47061,-4.64885 l 0.0196,-36.75667 h 0.28235 l 21.94327,48.63893 h 12.3617 l 21.75457,-48.63893 h 0.29213 l 0.26417,36.75667 c -0.0658,3.19673 -0.2354,4.64885 -3.46083,4.64885 h -6.16687 v 7.2138 h 38.02019 v -7.2138 h -7.81622 c -2.91339,0 -2.7913,-2.74401 -2.7913,-4.79004 l -0.1887,-33.76827 c 0,-2.20706 0.31095,-4.74253 4.87535,-4.74253 h 6.30805 v -7.19419 l -36.55814,-10e-4 -17.13362,37.73782 z m -265.71638,10e-4 v 7.19419 h 6.31223 c 4.55008,0 4.87675,2.53547 4.87675,4.74253 v 33.76827 c 0,2.04603 0.1307,4.79004 -2.7927,4.79004 h -7.82042 v 7.2138 h 33.32935 v -7.2138 h -8.12513 c -3.22971,0 -3.40288,-1.45212 -3.45942,-4.64885 v -28.91109 l 45.70501,40.77374 h 11.6181 l -0.61781,-46.05444 c 0.0851,-3.33778 0.27285,-4.47981 3.71941,-4.47981 h 7.29485 v -7.17458 h -33.91779 v 7.17458 h 7.46678 c 3.38501,0 3.98851,1.35816 4.01714,4.47981 l 0.41932,24.10281 -39.65695,-35.7572 z m 347.5672,0 v 7.17458 h 7.02509 c 3.39432,0 3.99689,1.35816 4.02552,4.47981 h 0.01 v 27.87391 c 0,18.52025 19.20803,21.79234 35.69154,21.79234 16.8134,0 33.08054,-3.4412 33.08054,-21.21646 l -0.12301,-30.10887 c 0.17892,-2.06465 0.82892,-2.82073 3.62996,-2.82073 h 7.29905 v -7.17458 h -33.58932 v 7.17458 h 6.67705 c 3.25334,0 3.9322,1.26348 4.00735,4.13036 l -0.028,29.05366 c 0,6.7049 -2.44347,14.03199 -20.95367,14.03199 -17.32225,0 -16.58709,-11.94817 -16.58709,-13.9663 v -29.1557 c 0.0945,-3.03642 0.40674,-4.09401 3.71661,-4.09401 h 7.10057 v -7.17458 z m -399.73681,4.78024 c 7.00617,0 13.75692,2.55586 18.27837,6.99717 4.41697,4.33898 6.69102,10.40058 6.69102,16.99242 0,6.81726 -2.11733,12.37147 -6.69102,16.93516 -4.57083,4.56154 -11.1312,7.02508 -18.27837,7.02508 -7.01406,0 -13.73923,-2.49861 -18.29934,-7.02508 -4.35257,-4.32037 -6.65468,-10.43851 -6.65468,-16.93516 0,-6.52528 2.30067,-12.64557 6.65468,-16.99242 4.5229,-4.51645 11.28528,-6.99717 18.29934,-6.99717 z" />
  </g>
</svg>
